<?xml version="1.0" encoding="utf-8" ?>
<svg baseProfile="full" height="1440" version="1.1" viewBox="0,0,820,1440" width="820" xmlns="http://www.w3.org/2000/svg" xmlns:ev="http://www.w3.org/2001/xml-events" xmlns:xlink="http://www.w3.org/1999/xlink"><defs /><path d="M 485 0 L 483 2 L 482 2 L 481 3 L 480 3 L 479 4 L 478 4 L 476 6 L 475 6 L 474 7 L 473 7 L 472 8 L 471 8 L 470 9 L 468 9 L 466 11 L 464 11 L 463 12 L 457 12 L 456 13 L 448 13 L 447 14 L 440 14 L 439 15 L 437 15 L 436 16 L 432 16 L 431 17 L 430 17 L 429 18 L 429 19 L 425 23 L 425 24 L 423 26 L 423 27 L 420 30 L 420 31 L 419 32 L 419 34 L 418 35 L 418 36 L 415 39 L 415 40 L 414 41 L 414 43 L 413 44 L 413 45 L 410 48 L 410 50 L 409 51 L 409 52 L 408 53 L 408 54 L 405 57 L 405 59 L 403 61 L 403 62 L 401 64 L 401 66 L 400 67 L 400 69 L 399 70 L 399 72 L 398 73 L 398 74 L 396 76 L 396 78 L 395 79 L 395 81 L 394 82 L 394 84 L 393 85 L 393 86 L 392 87 L 392 88 L 391 89 L 391 91 L 390 92 L 390 94 L 389 95 L 389 97 L 388 98 L 388 100 L 387 101 L 387 102 L 386 103 L 386 107 L 385 108 L 385 111 L 384 112 L 384 114 L 383 115 L 383 116 L 382 117 L 382 119 L 381 120 L 381 123 L 380 124 L 380 127 L 379 128 L 379 131 L 377 133 L 377 137 L 376 138 L 376 143 L 375 144 L 375 150 L 377 150 L 377 149 L 378 148 L 378 147 L 380 145 L 380 144 L 381 143 L 381 142 L 382 141 L 382 139 L 383 138 L 383 137 L 385 135 L 385 134 L 386 133 L 386 132 L 387 131 L 387 130 L 388 129 L 388 128 L 390 126 L 390 124 L 392 122 L 392 120 L 394 118 L 396 120 L 396 131 L 395 132 L 395 148 L 394 149 L 394 165 L 392 167 L 391 166 L 384 166 L 383 165 L 379 165 L 378 164 L 370 164 L 369 163 L 364 163 L 363 162 L 360 162 L 357 159 L 357 156 L 356 155 L 356 152 L 354 150 L 354 147 L 353 146 L 353 144 L 352 143 L 352 140 L 351 139 L 351 137 L 347 137 L 346 138 L 345 138 L 343 140 L 342 140 L 332 150 L 332 152 L 331 153 L 331 158 L 332 159 L 332 161 L 333 162 L 333 164 L 335 166 L 335 168 L 336 169 L 336 171 L 337 172 L 337 174 L 338 175 L 338 177 L 340 179 L 340 181 L 341 182 L 341 184 L 342 185 L 342 187 L 343 188 L 343 190 L 345 192 L 345 194 L 346 195 L 346 196 L 347 197 L 347 198 L 349 200 L 349 202 L 350 203 L 350 204 L 351 205 L 351 206 L 352 207 L 352 208 L 353 209 L 353 211 L 355 213 L 355 214 L 356 215 L 356 216 L 357 217 L 357 218 L 358 219 L 358 220 L 359 221 L 359 222 L 360 223 L 360 224 L 361 225 L 361 226 L 362 227 L 362 229 L 364 231 L 364 232 L 365 233 L 365 234 L 366 235 L 366 236 L 367 237 L 367 239 L 369 241 L 369 242 L 370 243 L 370 244 L 371 245 L 371 246 L 372 247 L 372 248 L 373 249 L 373 250 L 375 252 L 375 254 L 376 255 L 376 256 L 377 257 L 377 259 L 379 261 L 379 262 L 380 263 L 380 264 L 381 265 L 381 267 L 383 269 L 383 270 L 384 271 L 384 273 L 382 275 L 382 276 L 380 278 L 379 278 L 377 280 L 377 281 L 375 283 L 375 284 L 371 288 L 371 289 L 370 290 L 370 291 L 367 294 L 367 295 L 365 297 L 365 298 L 361 302 L 361 304 L 357 308 L 357 310 L 356 311 L 356 313 L 355 314 L 355 317 L 353 319 L 353 322 L 352 323 L 352 326 L 351 327 L 351 329 L 350 330 L 350 333 L 348 335 L 348 337 L 347 338 L 347 341 L 346 342 L 346 344 L 345 345 L 345 348 L 343 350 L 343 352 L 342 353 L 342 356 L 341 357 L 341 359 L 340 360 L 340 364 L 338 366 L 338 369 L 337 370 L 337 372 L 336 373 L 336 377 L 335 378 L 335 380 L 334 381 L 334 382 L 333 383 L 333 386 L 332 387 L 332 390 L 331 391 L 331 394 L 330 395 L 330 398 L 328 400 L 328 404 L 327 405 L 327 407 L 326 408 L 326 411 L 325 412 L 325 413 L 324 414 L 324 417 L 323 418 L 323 421 L 322 422 L 322 424 L 321 425 L 321 429 L 319 431 L 319 434 L 318 435 L 318 437 L 317 438 L 317 442 L 316 443 L 316 446 L 315 447 L 315 448 L 314 449 L 314 451 L 313 452 L 313 455 L 312 456 L 312 459 L 311 460 L 311 462 L 309 464 L 309 466 L 308 467 L 308 469 L 307 470 L 307 473 L 306 474 L 306 476 L 304 478 L 304 480 L 303 481 L 303 483 L 302 484 L 302 486 L 301 487 L 301 488 L 300 489 L 300 490 L 299 491 L 299 493 L 298 494 L 298 496 L 297 497 L 297 499 L 296 500 L 296 501 L 295 502 L 295 504 L 294 505 L 294 506 L 293 507 L 293 510 L 292 511 L 292 513 L 290 515 L 290 517 L 289 518 L 289 520 L 288 521 L 288 523 L 287 524 L 287 526 L 285 528 L 285 530 L 284 531 L 284 532 L 283 533 L 283 535 L 282 536 L 282 538 L 280 540 L 280 541 L 279 542 L 279 544 L 278 545 L 278 546 L 277 547 L 277 549 L 275 551 L 275 552 L 274 553 L 274 555 L 273 556 L 273 558 L 272 559 L 272 560 L 270 562 L 270 564 L 269 565 L 269 567 L 268 568 L 268 569 L 266 571 L 266 572 L 264 574 L 264 575 L 263 576 L 263 577 L 260 580 L 260 581 L 259 582 L 259 583 L 258 584 L 258 585 L 255 588 L 255 589 L 254 590 L 254 591 L 253 592 L 253 593 L 250 596 L 250 597 L 249 598 L 249 599 L 248 600 L 248 601 L 245 604 L 245 605 L 244 606 L 244 607 L 241 610 L 241 611 L 240 612 L 240 613 L 239 614 L 239 615 L 236 618 L 236 619 L 235 620 L 235 621 L 234 622 L 234 623 L 231 626 L 231 627 L 230 628 L 230 629 L 228 631 L 228 632 L 226 634 L 226 635 L 225 636 L 225 637 L 222 640 L 222 641 L 221 642 L 221 643 L 220 644 L 220 645 L 218 647 L 218 648 L 216 650 L 216 652 L 215 653 L 215 654 L 212 657 L 212 658 L 211 659 L 211 660 L 210 661 L 210 662 L 207 665 L 207 667 L 205 669 L 205 670 L 204 671 L 204 672 L 202 674 L 202 675 L 201 676 L 201 677 L 198 680 L 198 682 L 197 683 L 197 684 L 196 685 L 196 686 L 193 689 L 193 690 L 192 691 L 192 692 L 191 693 L 191 694 L 188 697 L 188 698 L 187 699 L 187 701 L 185 703 L 185 704 L 183 706 L 183 707 L 182 708 L 182 709 L 181 710 L 181 711 L 179 713 L 179 714 L 178 715 L 178 716 L 177 717 L 177 718 L 174 721 L 174 722 L 173 723 L 173 724 L 172 725 L 172 726 L 171 727 L 171 728 L 168 731 L 168 732 L 167 733 L 167 734 L 166 735 L 166 737 L 165 738 L 165 741 L 166 742 L 166 744 L 168 746 L 168 747 L 170 749 L 170 750 L 173 753 L 173 754 L 180 761 L 180 762 L 181 762 L 182 763 L 183 763 L 184 764 L 185 764 L 188 767 L 189 767 L 190 768 L 191 768 L 192 769 L 193 769 L 196 772 L 197 772 L 198 773 L 199 773 L 202 776 L 203 776 L 204 777 L 205 777 L 206 778 L 207 778 L 209 780 L 210 780 L 212 782 L 213 782 L 214 783 L 216 783 L 217 784 L 218 784 L 219 785 L 220 785 L 221 786 L 222 786 L 225 789 L 225 790 L 222 793 L 222 794 L 221 795 L 221 796 L 220 797 L 220 798 L 219 799 L 219 800 L 216 803 L 216 804 L 215 805 L 215 807 L 212 810 L 212 811 L 211 812 L 211 813 L 208 816 L 208 817 L 206 819 L 206 820 L 205 821 L 205 822 L 202 825 L 202 826 L 201 827 L 201 828 L 198 831 L 198 832 L 197 833 L 197 834 L 196 835 L 196 836 L 193 839 L 193 840 L 191 842 L 191 843 L 190 844 L 190 845 L 187 848 L 187 849 L 186 850 L 186 851 L 183 854 L 183 855 L 182 856 L 182 857 L 179 860 L 179 861 L 178 862 L 178 863 L 171 870 L 171 871 L 161 881 L 161 882 L 152 891 L 152 892 L 144 900 L 144 901 L 129 916 L 128 916 L 107 937 L 106 937 L 86 957 L 85 957 L 85 958 L 82 961 L 81 961 L 67 975 L 66 975 L 66 976 L 63 979 L 62 979 L 56 985 L 56 986 L 54 988 L 53 988 L 42 999 L 42 1000 L 38 1004 L 38 1005 L 31 1012 L 31 1013 L 24 1020 L 24 1021 L 18 1027 L 18 1028 L 13 1033 L 13 1034 L 10 1037 L 9 1037 L 9 1038 L 8 1039 L 8 1040 L 7 1041 L 7 1042 L 6 1043 L 6 1044 L 4 1046 L 4 1048 L 3 1049 L 3 1051 L 2 1052 L 2 1055 L 0 1057 L 0 1093 L 2 1095 L 2 1096 L 5 1096 L 5 1095 L 8 1092 L 9 1092 L 18 1083 L 19 1083 L 23 1079 L 24 1079 L 36 1067 L 37 1067 L 45 1059 L 46 1059 L 55 1050 L 56 1050 L 64 1042 L 65 1042 L 70 1037 L 71 1037 L 80 1028 L 81 1028 L 88 1021 L 91 1021 L 92 1020 L 105 1020 L 106 1019 L 110 1019 L 111 1020 L 119 1020 L 120 1021 L 124 1021 L 125 1022 L 127 1022 L 128 1023 L 134 1023 L 135 1024 L 140 1024 L 141 1025 L 145 1025 L 146 1026 L 150 1026 L 152 1028 L 157 1028 L 158 1029 L 162 1029 L 163 1030 L 166 1030 L 167 1031 L 169 1031 L 170 1032 L 172 1032 L 173 1033 L 177 1033 L 178 1034 L 182 1034 L 183 1035 L 186 1035 L 187 1036 L 188 1036 L 189 1037 L 192 1037 L 193 1038 L 197 1038 L 198 1039 L 202 1039 L 203 1040 L 206 1040 L 208 1042 L 211 1042 L 212 1043 L 216 1043 L 217 1044 L 220 1044 L 221 1045 L 224 1045 L 226 1047 L 229 1047 L 230 1048 L 233 1048 L 234 1049 L 236 1049 L 237 1050 L 239 1050 L 240 1051 L 241 1051 L 242 1052 L 244 1052 L 245 1053 L 248 1053 L 249 1054 L 250 1054 L 251 1055 L 253 1055 L 255 1057 L 256 1057 L 258 1059 L 256 1061 L 256 1062 L 255 1063 L 255 1064 L 254 1065 L 254 1067 L 253 1068 L 253 1069 L 251 1071 L 251 1072 L 250 1073 L 250 1074 L 249 1075 L 249 1077 L 248 1078 L 248 1079 L 246 1081 L 246 1082 L 245 1083 L 245 1084 L 244 1085 L 244 1087 L 241 1090 L 241 1091 L 240 1092 L 240 1093 L 239 1094 L 239 1095 L 236 1098 L 236 1099 L 235 1100 L 235 1101 L 234 1102 L 234 1103 L 231 1106 L 231 1107 L 230 1108 L 230 1110 L 227 1113 L 227 1114 L 226 1115 L 226 1116 L 225 1117 L 225 1118 L 222 1121 L 222 1123 L 223 1123 L 224 1124 L 227 1124 L 228 1125 L 233 1125 L 234 1126 L 240 1126 L 241 1127 L 247 1127 L 249 1129 L 254 1129 L 255 1130 L 261 1130 L 262 1131 L 268 1131 L 269 1132 L 274 1132 L 275 1133 L 276 1133 L 277 1134 L 281 1134 L 282 1135 L 288 1135 L 289 1136 L 291 1136 L 293 1138 L 293 1141 L 292 1142 L 292 1148 L 291 1149 L 291 1150 L 290 1151 L 290 1156 L 292 1158 L 292 1159 L 295 1162 L 295 1163 L 298 1166 L 298 1167 L 300 1169 L 302 1169 L 303 1170 L 304 1170 L 305 1171 L 306 1171 L 308 1173 L 309 1173 L 312 1176 L 312 1195 L 313 1196 L 313 1230 L 314 1231 L 314 1269 L 313 1270 L 313 1275 L 312 1276 L 312 1286 L 313 1287 L 313 1294 L 312 1295 L 312 1300 L 311 1301 L 311 1303 L 310 1304 L 310 1305 L 309 1306 L 309 1307 L 308 1308 L 308 1310 L 307 1311 L 307 1321 L 305 1323 L 304 1323 L 303 1324 L 303 1325 L 301 1327 L 301 1328 L 298 1331 L 298 1332 L 297 1333 L 297 1334 L 294 1337 L 293 1337 L 292 1338 L 292 1339 L 290 1341 L 289 1341 L 287 1343 L 287 1344 L 285 1346 L 284 1346 L 283 1347 L 283 1349 L 279 1353 L 278 1353 L 276 1355 L 275 1355 L 274 1356 L 273 1356 L 272 1357 L 270 1357 L 267 1360 L 266 1360 L 265 1361 L 263 1361 L 262 1362 L 261 1362 L 259 1364 L 258 1364 L 257 1365 L 256 1365 L 255 1366 L 254 1366 L 253 1367 L 252 1367 L 251 1368 L 250 1368 L 248 1370 L 247 1370 L 246 1371 L 245 1371 L 244 1372 L 244 1375 L 239 1380 L 239 1381 L 236 1384 L 236 1386 L 235 1387 L 235 1388 L 231 1392 L 231 1393 L 230 1394 L 230 1397 L 227 1400 L 225 1400 L 224 1401 L 223 1401 L 222 1402 L 222 1404 L 221 1405 L 221 1421 L 222 1422 L 222 1423 L 223 1424 L 224 1424 L 225 1425 L 227 1425 L 228 1426 L 229 1426 L 230 1425 L 231 1425 L 232 1426 L 233 1426 L 234 1427 L 241 1427 L 242 1428 L 244 1428 L 245 1429 L 269 1429 L 270 1428 L 271 1428 L 272 1429 L 277 1429 L 278 1428 L 282 1428 L 283 1427 L 302 1427 L 303 1426 L 305 1426 L 306 1425 L 307 1426 L 318 1426 L 319 1425 L 333 1425 L 334 1424 L 335 1425 L 365 1425 L 366 1424 L 374 1424 L 375 1423 L 376 1423 L 377 1422 L 378 1423 L 382 1423 L 383 1422 L 388 1422 L 388 1421 L 390 1419 L 390 1405 L 391 1404 L 391 1402 L 388 1399 L 388 1371 L 387 1370 L 387 1356 L 386 1355 L 386 1349 L 385 1348 L 385 1347 L 386 1346 L 386 1344 L 387 1343 L 387 1328 L 386 1327 L 386 1325 L 387 1324 L 387 1311 L 388 1310 L 388 1306 L 390 1304 L 390 1297 L 391 1296 L 391 1288 L 390 1287 L 390 1285 L 388 1283 L 388 1282 L 387 1281 L 387 1271 L 388 1270 L 388 1262 L 389 1261 L 389 1258 L 388 1257 L 388 1252 L 389 1251 L 389 1250 L 390 1249 L 390 1239 L 391 1238 L 391 1230 L 392 1229 L 392 1218 L 393 1217 L 393 1209 L 394 1208 L 394 1206 L 395 1205 L 395 1197 L 396 1196 L 396 1185 L 397 1184 L 397 1175 L 399 1173 L 402 1173 L 403 1172 L 405 1172 L 406 1171 L 408 1171 L 410 1169 L 411 1169 L 412 1168 L 413 1168 L 416 1165 L 416 1164 L 417 1163 L 417 1159 L 418 1158 L 418 1157 L 419 1156 L 419 1153 L 420 1152 L 420 1147 L 422 1145 L 424 1145 L 425 1146 L 428 1146 L 429 1147 L 431 1147 L 433 1149 L 436 1149 L 437 1150 L 441 1150 L 442 1151 L 444 1151 L 446 1153 L 449 1153 L 450 1154 L 454 1154 L 455 1155 L 459 1155 L 460 1156 L 463 1156 L 465 1158 L 468 1158 L 469 1159 L 472 1159 L 473 1160 L 477 1160 L 478 1161 L 482 1161 L 484 1163 L 486 1163 L 487 1164 L 491 1164 L 492 1165 L 496 1165 L 497 1166 L 499 1166 L 501 1168 L 505 1168 L 506 1169 L 510 1169 L 511 1170 L 515 1170 L 516 1171 L 519 1171 L 521 1173 L 526 1173 L 527 1174 L 532 1174 L 533 1175 L 537 1175 L 538 1176 L 540 1176 L 541 1177 L 543 1177 L 544 1178 L 549 1178 L 550 1179 L 554 1179 L 555 1180 L 560 1180 L 562 1182 L 574 1182 L 575 1183 L 577 1183 L 579 1185 L 579 1191 L 580 1192 L 580 1199 L 581 1200 L 581 1201 L 582 1202 L 582 1208 L 583 1209 L 583 1217 L 584 1218 L 584 1226 L 585 1227 L 585 1232 L 586 1233 L 586 1236 L 587 1237 L 587 1243 L 588 1244 L 588 1254 L 589 1255 L 589 1265 L 591 1267 L 591 1268 L 593 1270 L 593 1277 L 594 1278 L 594 1286 L 595 1287 L 595 1288 L 596 1289 L 596 1295 L 597 1296 L 597 1321 L 596 1322 L 596 1330 L 597 1331 L 597 1348 L 596 1349 L 596 1354 L 595 1355 L 595 1356 L 594 1357 L 594 1374 L 593 1375 L 593 1401 L 592 1402 L 592 1403 L 591 1404 L 591 1414 L 592 1415 L 592 1423 L 594 1425 L 596 1425 L 597 1426 L 599 1426 L 602 1429 L 604 1429 L 605 1430 L 608 1430 L 609 1431 L 610 1431 L 611 1432 L 614 1432 L 615 1433 L 620 1433 L 622 1435 L 627 1435 L 628 1436 L 635 1436 L 638 1439 L 642 1439 L 644 1437 L 645 1437 L 647 1439 L 716 1439 L 718 1437 L 719 1437 L 721 1439 L 722 1439 L 724 1437 L 725 1437 L 726 1436 L 729 1436 L 730 1435 L 731 1435 L 731 1434 L 733 1432 L 733 1420 L 734 1419 L 734 1415 L 733 1414 L 733 1413 L 731 1411 L 731 1410 L 730 1409 L 730 1400 L 729 1399 L 729 1397 L 728 1396 L 728 1395 L 726 1393 L 726 1392 L 725 1391 L 725 1390 L 715 1380 L 714 1380 L 710 1376 L 710 1375 L 709 1375 L 707 1373 L 707 1372 L 702 1367 L 702 1364 L 701 1363 L 701 1362 L 699 1360 L 699 1359 L 695 1355 L 695 1354 L 690 1349 L 690 1348 L 688 1346 L 688 1345 L 686 1343 L 686 1342 L 685 1341 L 685 1340 L 682 1337 L 682 1335 L 681 1334 L 681 1333 L 680 1332 L 680 1330 L 678 1328 L 678 1327 L 677 1326 L 677 1325 L 675 1323 L 675 1320 L 674 1319 L 674 1318 L 673 1317 L 673 1312 L 672 1311 L 672 1305 L 671 1304 L 671 1291 L 672 1290 L 672 1288 L 671 1287 L 671 1284 L 670 1283 L 670 1281 L 669 1280 L 669 1279 L 668 1278 L 668 1275 L 667 1274 L 667 1270 L 666 1269 L 666 1266 L 665 1265 L 665 1245 L 663 1243 L 663 1241 L 662 1240 L 662 1226 L 661 1225 L 661 1206 L 660 1205 L 660 1197 L 659 1196 L 659 1190 L 662 1187 L 668 1187 L 669 1186 L 670 1186 L 671 1185 L 674 1185 L 675 1184 L 680 1184 L 681 1183 L 687 1183 L 688 1182 L 691 1182 L 693 1180 L 697 1180 L 698 1179 L 700 1179 L 701 1178 L 704 1178 L 705 1177 L 706 1177 L 707 1176 L 708 1176 L 709 1175 L 711 1175 L 712 1174 L 714 1174 L 715 1173 L 718 1173 L 721 1170 L 721 1169 L 724 1166 L 724 1165 L 726 1163 L 726 1162 L 728 1160 L 728 1149 L 727 1148 L 727 1145 L 726 1144 L 726 1130 L 725 1129 L 725 1121 L 724 1120 L 724 1110 L 723 1109 L 723 1100 L 722 1099 L 722 1098 L 721 1097 L 721 1089 L 720 1088 L 720 1079 L 719 1078 L 719 1068 L 718 1067 L 718 1059 L 717 1058 L 717 1056 L 716 1055 L 716 1049 L 715 1048 L 715 1040 L 714 1039 L 714 1031 L 713 1030 L 713 1024 L 712 1023 L 712 1019 L 711 1018 L 711 1012 L 710 1011 L 710 1003 L 709 1002 L 709 994 L 708 993 L 708 986 L 707 985 L 707 983 L 706 982 L 706 976 L 705 975 L 705 967 L 704 966 L 704 957 L 703 956 L 703 955 L 702 954 L 702 948 L 701 947 L 701 939 L 700 938 L 700 929 L 699 928 L 699 920 L 698 919 L 698 918 L 697 917 L 697 910 L 696 909 L 696 901 L 695 900 L 695 892 L 694 891 L 694 882 L 693 881 L 693 880 L 692 879 L 692 871 L 691 870 L 691 866 L 693 864 L 694 865 L 695 865 L 696 866 L 700 866 L 702 864 L 703 864 L 708 859 L 710 859 L 711 858 L 714 858 L 716 856 L 718 856 L 719 855 L 722 855 L 725 852 L 725 851 L 728 848 L 728 847 L 729 846 L 729 845 L 731 843 L 733 843 L 734 842 L 736 842 L 738 840 L 739 840 L 743 836 L 744 836 L 747 833 L 747 832 L 749 830 L 750 830 L 753 827 L 753 826 L 754 825 L 754 818 L 755 817 L 755 809 L 757 807 L 757 801 L 758 800 L 758 786 L 760 784 L 766 784 L 767 783 L 796 783 L 797 782 L 804 782 L 805 781 L 807 781 L 809 779 L 811 779 L 812 778 L 813 778 L 814 777 L 816 777 L 819 774 L 819 759 L 817 757 L 817 750 L 816 749 L 816 744 L 815 743 L 815 739 L 814 738 L 814 737 L 813 736 L 813 730 L 812 729 L 812 724 L 811 723 L 811 718 L 810 717 L 810 712 L 809 711 L 809 710 L 808 709 L 808 703 L 807 702 L 807 696 L 806 695 L 806 691 L 805 690 L 805 685 L 804 684 L 804 683 L 803 682 L 803 676 L 802 675 L 802 669 L 801 668 L 801 664 L 800 663 L 800 658 L 799 657 L 799 656 L 798 655 L 798 649 L 797 648 L 797 642 L 796 641 L 796 637 L 795 636 L 795 635 L 794 634 L 794 630 L 793 629 L 793 624 L 792 623 L 792 620 L 791 619 L 791 615 L 790 614 L 790 613 L 789 612 L 789 609 L 788 608 L 788 603 L 787 602 L 787 599 L 786 598 L 786 595 L 785 594 L 785 593 L 784 592 L 784 588 L 783 587 L 783 583 L 782 582 L 782 579 L 781 578 L 781 574 L 780 573 L 780 572 L 779 571 L 779 567 L 778 566 L 778 563 L 777 562 L 777 558 L 776 557 L 776 553 L 775 552 L 775 551 L 774 550 L 774 546 L 773 545 L 773 542 L 772 541 L 772 537 L 771 536 L 771 535 L 770 534 L 770 531 L 769 530 L 769 525 L 768 524 L 768 521 L 767 520 L 767 516 L 766 515 L 766 512 L 765 511 L 765 510 L 764 509 L 764 504 L 763 503 L 763 500 L 762 499 L 762 495 L 760 493 L 760 489 L 759 488 L 759 485 L 758 484 L 758 480 L 757 479 L 757 474 L 755 472 L 755 468 L 754 467 L 754 464 L 753 463 L 753 459 L 752 458 L 752 454 L 751 453 L 751 452 L 750 451 L 750 447 L 749 446 L 749 443 L 748 442 L 748 438 L 747 437 L 747 433 L 745 431 L 745 426 L 744 425 L 744 423 L 743 422 L 743 419 L 742 418 L 742 416 L 741 415 L 741 414 L 740 413 L 740 411 L 739 410 L 739 407 L 738 406 L 738 404 L 737 403 L 737 401 L 736 400 L 736 399 L 735 398 L 735 396 L 734 395 L 734 392 L 733 391 L 733 388 L 731 386 L 731 384 L 730 383 L 730 381 L 729 380 L 729 377 L 728 376 L 728 374 L 727 373 L 727 372 L 726 371 L 726 368 L 725 367 L 725 366 L 724 365 L 724 362 L 723 361 L 723 358 L 721 356 L 721 354 L 720 353 L 720 350 L 719 349 L 719 347 L 718 346 L 718 344 L 717 343 L 717 342 L 716 341 L 716 339 L 715 338 L 715 335 L 714 334 L 714 331 L 713 330 L 713 329 L 712 328 L 712 327 L 711 326 L 711 324 L 710 323 L 710 320 L 709 319 L 709 316 L 708 315 L 708 313 L 707 312 L 707 311 L 706 310 L 706 308 L 705 307 L 705 305 L 704 304 L 704 301 L 702 299 L 702 297 L 701 296 L 701 293 L 700 292 L 700 289 L 699 288 L 699 287 L 697 285 L 697 284 L 696 283 L 696 282 L 695 281 L 695 280 L 694 279 L 694 278 L 692 276 L 692 275 L 691 274 L 691 273 L 690 272 L 690 271 L 689 270 L 689 269 L 687 267 L 687 266 L 666 245 L 665 245 L 664 244 L 663 244 L 661 242 L 660 242 L 658 240 L 657 240 L 656 239 L 655 239 L 653 237 L 652 237 L 650 235 L 649 235 L 648 234 L 647 234 L 644 231 L 643 231 L 642 230 L 641 230 L 640 229 L 639 229 L 636 226 L 635 226 L 634 225 L 632 225 L 628 221 L 626 221 L 623 218 L 622 218 L 620 216 L 621 215 L 621 214 L 620 213 L 620 212 L 615 207 L 618 204 L 618 203 L 619 202 L 619 199 L 620 198 L 620 197 L 621 196 L 621 195 L 622 194 L 622 192 L 623 191 L 623 188 L 624 187 L 624 185 L 625 184 L 625 181 L 627 179 L 627 177 L 628 176 L 628 174 L 629 173 L 629 170 L 631 168 L 631 166 L 632 165 L 632 162 L 633 161 L 633 158 L 634 157 L 634 155 L 636 153 L 636 151 L 637 150 L 637 147 L 638 146 L 638 143 L 639 142 L 639 138 L 636 135 L 635 135 L 630 130 L 629 130 L 627 128 L 626 128 L 624 126 L 623 126 L 621 124 L 620 124 L 618 122 L 617 122 L 614 119 L 613 119 L 610 116 L 608 116 L 607 115 L 605 115 L 604 114 L 603 114 L 602 113 L 601 113 L 600 112 L 599 112 L 598 111 L 597 111 L 596 110 L 595 110 L 594 109 L 592 109 L 591 108 L 590 108 L 589 107 L 588 107 L 587 106 L 586 106 L 585 105 L 582 105 L 581 104 L 578 104 L 577 103 L 574 103 L 572 101 L 572 95 L 571 94 L 571 76 L 570 75 L 570 71 L 569 70 L 569 68 L 568 67 L 568 65 L 567 64 L 567 63 L 566 62 L 566 60 L 565 59 L 565 57 L 564 56 L 564 54 L 563 53 L 563 52 L 561 50 L 561 49 L 560 48 L 560 47 L 559 46 L 559 45 L 557 43 L 557 42 L 555 40 L 555 39 L 554 38 L 554 37 L 552 35 L 552 33 L 550 31 L 550 30 L 549 29 L 549 28 L 544 23 L 543 23 L 538 18 L 537 18 L 536 17 L 535 17 L 533 15 L 533 14 L 532 14 L 531 13 L 530 13 L 526 9 L 522 9 L 521 8 L 518 8 L 517 7 L 514 7 L 513 6 L 512 6 L 511 5 L 510 5 L 509 4 L 505 4 L 504 3 L 502 3 L 501 2 L 499 2 L 497 0 Z" fill="black" stroke="none" /></svg>