<?xml version="1.0" encoding="utf-8" ?>
<svg baseProfile="full" height="200" version="1.1" viewBox="0,0,200,200" width="200" xmlns="http://www.w3.org/2000/svg" xmlns:ev="http://www.w3.org/2001/xml-events" xmlns:xlink="http://www.w3.org/1999/xlink"><defs /><path d="M 94 54 L 93 55 L 88 55 L 87 56 L 84 56 L 83 57 L 81 57 L 79 59 L 78 59 L 77 60 L 76 60 L 75 61 L 74 61 L 73 62 L 72 62 L 70 64 L 69 64 L 64 69 L 64 70 L 62 72 L 62 73 L 61 74 L 61 75 L 60 76 L 60 77 L 59 78 L 59 79 L 57 81 L 57 83 L 56 84 L 56 87 L 55 88 L 55 93 L 54 94 L 54 106 L 55 107 L 55 112 L 56 113 L 56 116 L 57 117 L 57 119 L 59 121 L 59 122 L 60 123 L 60 124 L 61 125 L 61 126 L 62 127 L 62 128 L 64 130 L 64 131 L 69 136 L 70 136 L 72 138 L 73 138 L 74 139 L 75 139 L 76 140 L 77 140 L 78 141 L 79 141 L 81 143 L 84 143 L 85 144 L 88 144 L 89 145 L 96 145 L 97 146 L 103 146 L 104 145 L 111 145 L 112 144 L 115 144 L 116 143 L 119 143 L 121 141 L 122 141 L 123 140 L 124 140 L 125 139 L 126 139 L 127 138 L 128 138 L 130 136 L 131 136 L 136 131 L 136 130 L 138 128 L 138 127 L 139 126 L 139 125 L 140 124 L 140 123 L 141 122 L 141 121 L 143 119 L 143 116 L 144 115 L 144 112 L 145 111 L 145 104 L 146 103 L 146 97 L 145 96 L 145 89 L 144 88 L 144 85 L 143 84 L 143 81 L 141 79 L 141 78 L 140 77 L 140 76 L 139 75 L 139 74 L 138 73 L 138 72 L 136 70 L 136 69 L 131 64 L 130 64 L 128 62 L 127 62 L 126 61 L 125 61 L 124 60 L 123 60 L 122 59 L 121 59 L 119 57 L 117 57 L 116 56 L 113 56 L 112 55 L 107 55 L 106 54 Z" fill="black" stroke="none" /></svg>